<svg height="512pt" viewBox="0 0 512 512.002" width="512pt" xmlns="http://www.w3.org/2000/svg"><g fill-rule="evenodd"><path d="m236.003906 227.003906h39.996094v60.453125h49.546875c33.25 0 60.453125-27.203125 60.453125-60.453125v-156.652344c0-11.191406-9.160156-20.351562-20.351562-20.351562h-219.296876c-11.191406 0-20.351562 9.160156-20.351562 20.351562v156.652344c0 33.25 27.203125 60.453125 60.453125 60.453125h49.546875v-60.453125zm0 0" fill="#aa836d"/><path d="m126 111v-37c-16.5 0-30 13.5-30 30v7zm0 0" fill="#e1ac91"/><path d="m126 111h-116v116.003906h116zm0 0" fill="#808080"/><path d="m386 111v116.003906h116v-116.003906zm0 0" fill="#808080"/><path d="m386 111h30v-7c0-16.5-13.5-30-30-30zm0 0" fill="#e1ac91"/><path d="m276 287.457031v-60.453125h-39.996094v77.179688c0 11 8.996094 20 20 20 11 0 19.996094-9 19.996094-20zm0 0" fill="#ffba4a"/><path d="m236.003906 304.183594v-16.726563h-49.546875c-33.25 0-60.457031-27.203125-60.457031-60.453125h-30v244.996094c0 16.5 13.5 30 30 30v-100c0-22 18-40 40-40h180c22 0 40 18 40 40v100c16.5 0 30-13.5 30-30v-244.996094h-30c0 33.25-27.203125 60.453125-60.453125 60.453125h-49.546875v16.726563c0 11-8.996094 20-19.996094 20-11.003906 0-20-9-20-20zm0 0" fill="#e1ac91"/><path d="m346 362h-180c-22 0-40 18-40 40v20h260v-20c0-22-18-40-40-40zm0 0" fill="#ffba4a"/><path d="m126 422h260v80h-260zm0 0" fill="#aa836d"/><path d="m96 470.910156v-146.726562h-25c-13.75 0-25 11.25-25 25v96.726562c0 13.75 11.25 25 25 25zm0 0" fill="#aa836d"/><path d="m416 324.183594v146.726562h25c13.75 0 25-11.25 25-25v-96.726562c0-13.75-11.25-25-25-25zm0 0" fill="#aa836d"/></g><path d="m502 101h-76.125c-1.296875-17.429688-13.804688-31.777344-30.328125-35.839844-2.472656-14.269531-14.933594-25.160156-29.898437-25.160156h-25.617188v-10c0-16.542969-13.457031-30-30-30h-108.058594c-16.542968 0-30 13.457031-30 30v10h-25.617187c-14.96875 0-27.429688 10.890625-29.898438 25.160156-16.523437 4.0625-29.03125 18.410156-30.332031 35.84375h-76.125c-5.523438 0-10 4.476563-10 10v116c0 5.519532 4.476562 10 10 10h76v77.179688h-15c-19.296875 0-35 15.703125-35 35v96.730468c0 19.296876 15.703125 35 35 35h16.015625c4.0625 17.777344 19.992187 31.089844 38.984375 31.089844h260c18.992188 0 34.925781-13.3125 38.988281-31.089844h16.011719c19.296875 0 35-15.703124 35-35v-96.730468c0-19.296875-15.703125-35-35-35h-15v-77.179688h76c5.523438 0 10-4.480468 10-10v-116c0-5.523437-4.476562-10.003906-10-10.003906zm-96.25 0h-9.75v-14.292969c5.140625 2.984375 8.828125 8.1875 9.75 14.292969zm-269.75-30.648438c0-5.707031 4.644531-10.351562 10.355469-10.351562h35.605469.011718c2.761719 0 5.261719-1.121094 7.070313-2.929688 1.808593-1.808593 2.929687-4.308593 2.929687-7.070312 0-.003906 0-.007812 0-.011719v-19.988281c0-5.515625 4.484375-10 10-10h108.058594c5.511719 0 10 4.484375 10 10v10h-69.09375c-5.523438 0-10 4.476562-10 10s4.476562 10 10 10h114.710938c5.707031 0 10.351562 4.644531 10.351562 10.355469v156.648437c0 27.816406-22.632812 50.453125-50.453125 50.453125h-39.546875v-50.453125c0-5.523437-4.476562-10-10-10h-40c-5.523438 0-10 4.476563-10 10v50.453125h-39.542969c-27.820312 0-50.457031-22.636719-50.457031-50.453125zm110.003906 166.648438h19.996094v67.183594c0 5.515625-4.484375 10-10 10-5.511719 0-10-4.484375-10-10v-67.183594zm-130.003906-150.292969v14.292969h-9.75c.925781-6.105469 4.609375-11.308594 9.75-14.292969zm-96 34.292969h96v96h-96zm66 339.910156h-15c-8.269531 0-15-6.726562-15-15v-96.726562c0-8.273438 6.730469-15 15-15h15zm290-48.910156h-240v-10c0-16.539062 13.460938-30 30-30h180c16.542969 0 30 13.460938 30 30zm-240 80v-60h240v60zm305-157.816406c8.269531 0 15 6.730468 15 15v96.730468c0 8.269532-6.730469 15-15 15h-15v-126.730468zm-35 136.726562v1.089844c0 7.382812-4.03125 13.828125-10 17.292969v-87.292969c0-27.570312-22.429688-50-50-50h-180c-27.570312 0-50 22.429688-50 50v87.292969c-5.964844-3.464844-10-9.910157-10-17.292969v-235h10.722656c4.871094 34.128906 34.28125 60.453125 69.734375 60.453125h39.542969v6.730469c0 16.542968 13.460938 30 30 30 16.542969 0 30-13.457032 30-30v-6.730469h39.546875c35.453125 0 64.859375-26.324219 69.730469-60.453125h10.722656zm86-253.910156h-96v-96h96zm0 0"/><path d="m210.703125 60h.269531c5.523438 0 10-4.476562 10-10s-4.476562-10-10-10h-.269531c-5.523437 0-10 4.476562-10 10s4.476563 10 10 10zm0 0"/><path d="m356 462h-41.035156c-5.523438 0-10 4.476562-10 10s4.476562 10 10 10h41.035156c5.523438 0 10-4.476562 10-10s-4.476562-10-10-10zm0 0"/><path d="m286.234375 462h-.234375c-5.523438 0-10 4.476562-10 10s4.476562 10 10 10h.234375c5.523437 0 10-4.476562 10-10s-4.476563-10-10-10zm0 0"/></svg>