<svg height="512pt" viewBox="-50 0 512 512" width="512pt" xmlns="http://www.w3.org/2000/svg"><path d="m353.539062 512h-294.078124c-16.859376 0-32.988282-7.195312-44.25-19.742188-11.261719-12.546874-16.679688-29.355468-14.867188-46.113281l35.046875-324.054687c.863281-7.964844 7.589844-14.007813 15.605469-14.007813h311.011718c8.015626 0 14.742188 6.039063 15.605469 14.007813l35.046875 324.054687c1.8125 16.761719-3.605468 33.566407-14.867187 46.113281-11.261719 12.546876-27.390625 19.742188-44.253907 19.742188zm0 0" fill="#fc5356"/><path d="m377.613281 122.089844c-.863281-7.964844-7.589843-14.007813-15.605469-14.007813h-155.667968v403.917969h147.199218c16.863282 0 32.988282-7.195312 44.253907-19.742188 11.261719-12.546874 16.679687-29.355468 14.867187-46.113281zm0 0" fill="#f70b57"/><path d="m206.339844 304.070312c-4.019532 0-7.417969-4.394531-7.417969-9.59375 0-5.199218 3.398437-9.589843 7.417969-9.589843h23.117187c8.667969 0 15.695313-7.027344 15.695313-15.695313 0-8.667968-7.027344-15.695312-15.695313-15.695312h-7.417969v-6.066406c0-8.667969-7.027343-15.695313-15.699218-15.695313-8.667969 0-15.695313 7.027344-15.695313 15.695313v9.578124c-13.601562 6.378907-23.113281 20.769532-23.113281 37.46875 0 22.601563 17.410156 40.984376 38.808594 40.984376 4.023437 0 7.421875 4.390624 7.421875 9.589843 0 5.203125-3.398438 9.59375-7.421875 9.59375h-23.113282c-8.667968 0-15.695312 7.027344-15.695312 15.695313 0 8.667968 7.027344 15.695312 15.695312 15.695312h7.417969v6.0625c0 8.671875 7.027344 15.699219 15.695313 15.699219 8.671875 0 15.699218-7.027344 15.699218-15.699219v-9.574218c13.601563-6.378907 23.113282-20.769532 23.113282-37.472657 0-22.597656-17.410156-40.980469-38.8125-40.980469zm0 0" fill="#ffe795"/><path d="m206.339844 354.644531v53.152344c8.671875 0 15.699218-7.027344 15.699218-15.699219v-9.574218c13.601563-6.378907 23.113282-20.769532 23.113282-37.472657 0-22.597656-17.410156-40.980469-38.8125-40.980469v31.390626c4.023437 0 7.421875 4.390624 7.421875 9.589843 0 5.203125-3.398438 9.59375-7.421875 9.59375zm0 0" fill="#ffd330"/><path d="m229.457031 253.496094h-7.417969v-6.066406c0-8.667969-7.027343-15.695313-15.699218-15.695313v53.152344h23.117187c8.667969 0 15.695313-7.027344 15.695313-15.695313 0-8.667968-7.027344-15.695312-15.695313-15.695312zm0 0" fill="#ffd330"/><path d="m288.394531 195.167969c-8.671875 0-15.699219-7.027344-15.699219-15.695313v-81.890625c0-36.496093-29.691406-66.191406-66.191406-66.191406-36.496094 0-66.1875 29.695313-66.1875 66.191406v81.890625c0 8.667969-7.03125 15.695313-15.699218 15.695313-8.667969 0-15.695313-7.027344-15.695313-15.695313v-81.890625c0-53.804687 43.773437-97.582031 97.582031-97.582031s97.585938 43.777344 97.585938 97.582031v81.890625c0 8.667969-7.027344 15.695313-15.695313 15.695313zm0 0" fill="#45686e"/><path d="m206.503906 0c-.050781 0-.105468.00390625-.160156.00390625v31.39453175c.054688 0 .109375-.007813.160156-.007813 36.5 0 66.191406 29.695313 66.191406 66.191406v81.890625c0 8.667969 7.027344 15.695313 15.699219 15.695313 8.667969 0 15.695313-7.027344 15.695313-15.695313v-81.890625c0-53.804687-43.777344-97.582031-97.585938-97.582031zm0 0" fill="#2a3b3b"/></svg>