<svg height="464pt" viewBox="-7 0 464 464.20294" width="464pt" xmlns="http://www.w3.org/2000/svg"><path d="m292.703125 410.199219-1.601563.601562-281 .5c-.199218-95.699219 71.101563-166 159.199219-166.101562 35.738281-.257813 70.492188 11.703125 98.5 33.902343.601563.5 1.101563.898438 1.699219 1.398438v58.898438c-.082031 25.484374 8.054688 50.3125 23.203125 70.800781zm0 0" fill="#e48e66"/><path d="m169.402344 10c52.851562 0 95.699218 42.847656 95.699218 95.699219 0 52.855469-42.847656 95.699219-95.699218 95.699219-52.855469 0-95.699219-42.84375-95.699219-95.699219 0-52.851563 42.84375-95.699219 95.699219-95.699219zm0 0" fill="#f8ec7d"/><path d="m169.402344 245.199219h-.199219c-88 .199219-159.300781 70.5-159.101563 166.101562l159.300782-.300781zm0 0" fill="#d18162"/><path d="m169.402344 10c-52.855469 0-95.699219 42.847656-95.699219 95.699219 0 52.855469 42.84375 95.699219 95.699219 95.699219zm0 0" fill="#e2d574"/><path d="m269.402344 280.398438v-1.097657l83.800781-45.902343 86.199219 45.902343v58.800781c.039062 23.558594-6.921875 46.601563-20 66.199219-13.066406 19.601563-31.601563 34.933594-53.300782 44.097657l-13.101562 5.703124-11.597656-5.101562c-43.621094-19.101562-71.832032-62.179688-71.902344-109.800781v-58.800781zm0 0" fill="#f8ec7d"/><g fill="#63316d"><path d="m169.402344 211.398438c58.375 0 105.699218-47.320313 105.699218-105.699219 0-58.375-47.324218-105.699219-105.699218-105.699219s-105.699219 47.324219-105.699219 105.699219c.054687 58.355469 47.34375 105.644531 105.699219 105.699219zm0-191.398438c47.332031 0 85.699218 38.371094 85.699218 85.699219 0 47.332031-38.367187 85.699219-85.699218 85.699219-47.332032 0-85.699219-38.367188-85.699219-85.699219.054687-47.308594 38.390625-85.644531 85.699219-85.699219zm0 0"/><path d="m444.101562 270.5-86.199218-45.898438c-2.96875-1.621093-6.566406-1.582031-9.5.097657l-78.902344 43.199219c-28.886719-21.414063-63.9375-32.886719-99.898438-32.699219h-.398437c-45.800781.101562-88.300781 17.902343-119.800781 50.300781-31.902344 32.699219-49.402344 77.398438-49.300782 125.898438.015626 5.519531 4.484376 9.984374 10 10l278.101563-.5c13.113281 16.199218 29.914063 29.023437 49 37.402343l11.597656 5.097657c1.257813.5625 2.625.835937 4 .800781 1.371094-.023438 2.726563-.292969 4-.800781l13.101563-5.597657c23.535156-9.925781 43.632812-26.546875 57.800781-47.800781 14.1875-21.253906 21.742187-46.246094 21.699219-71.800781v-58.800781c.003906-3.714844-2.03125-7.132813-5.300782-8.898438zm-380.398437 28.898438c27.699219-28.5 65.199219-44.199219 105.5-44.199219h.296875c33.101562 0 64.101562 10.402343 89.800781 30.101562v54.097657c-.050781 21.476562 5.277344 42.617187 15.5 61.5l-254.597656.5c2.296875-39.398438 17.5-75.199219 43.5-102zm365.699219 38.800781c.046875 21.601562-6.324219 42.726562-18.300782 60.699219-12.003906 18.019531-29.042968 32.105468-49 40.5l-9.101562 4-7.597656-3.296876c-17.699219-7.804687-33.066406-20.070312-44.601563-35.601562-13.914062-18.804688-21.386719-41.605469-21.300781-65v-54.101562l73.902344-40.5 76.097656 40.601562v52.699219zm0 0"/><path d="m325.902344 332.898438c-3.589844-4.195313-9.902344-4.6875-14.101563-1.097657-4.195312 3.589844-4.6875 9.902344-1.097656 14.097657l22.699219 26.601562c1.90625 2.210938 4.679687 3.488281 7.597656 3.5 2.292969.019531 4.519531-.757812 6.300781-2.199219l52.800781-43c4.28125-3.507812 4.90625-9.820312 1.398438-14.101562-3.503906-4.28125-9.816406-4.90625-14.097656-1.398438l-45.199219 36.800781zm0 0"/></g></svg>